<svg width="12" height="12" viewBox="0 0 12 12" fill="none" xmlns="http://www.w3.org/2000/svg">
<path d="M8.65 0.775024C7.525 0.775024 6.675 1.22502 6 2.17502C5.325 1.25002 4.475 0.800024 3.35 0.800024C1.5 0.775024 0 2.40002 0 4.40002C0 6.22502 1.35 7.40002 2.65 8.52502C2.8 8.65002 2.975 8.80002 3.125 8.95002L3.7 9.45002C4.8 10.425 5.35 10.925 5.6 11.075C5.725 11.15 5.875 11.2 6 11.2C6.125 11.2 6.275 11.15 6.4 11.075C6.65 10.925 7.1 10.525 8.35 9.37502L8.85 8.92502C9.025 8.77503 9.175 8.62502 9.35 8.50002C10.675 7.40002 12 6.25002 12 4.40002C12 2.40002 10.5 0.775024 8.65 0.775024Z" fill="#ED4956"/>
</svg>
