<svg width="12" height="12" viewBox="0 0 12 12" fill="none" xmlns="http://www.w3.org/2000/svg">
<path d="M8.65 1.52496C10.075 1.52496 11.25 2.82496 11.25 4.39996C11.25 6.09996 9.775 7.14996 8.375 8.39996C6.975 9.64996 6.25 10.325 6 10.475C5.725 10.3 4.825 9.47496 3.625 8.39996C2.2 7.14996 0.75 6.09996 0.75 4.39996C0.75 2.82496 1.925 1.52496 3.35 1.52496C4.4 1.52496 4.975 2.02496 5.375 2.59996C5.85 3.24996 5.925 3.57496 6 3.57496C6.075 3.57496 6.15 3.24996 6.625 2.59996C7.025 2.02496 7.6 1.52496 8.65 1.52496ZM8.65 0.774963C7.525 0.774963 6.675 1.22496 6 2.17496C5.325 1.24996 4.475 0.799963 3.35 0.799963C1.5 0.774963 0 2.39996 0 4.39996C0 6.22496 1.35 7.39996 2.65 8.52496C2.8 8.64996 2.975 8.79996 3.125 8.94996L3.7 9.44996C4.8 10.425 5.35 10.925 5.6 11.075C5.725 11.15 5.875 11.2 6 11.2C6.15 11.2 6.275 11.15 6.4 11.075C6.65 10.925 7.1 10.525 8.35 9.37496L8.85 8.92496C9.025 8.77496 9.175 8.62496 9.35 8.49996C10.675 7.39996 12 6.24996 12 4.39996C12 2.39996 10.5 0.774963 8.65 0.774963Z" fill="#262626"/>
</svg>
